HIERARCHY
ROOT Hips
{
  OFFSET 57.8838 95.319 338.509
  CHANNELS 6 Xposition Yposition Zposition Zrotation Xrotation Yrotation
  JOINT LeftUpLeg
  {
    OFFSET 8.64259 1.95398 -2.38835
    CHANNELS 3 Zrotation Xrotation Yrotation
    JOINT LeftLeg
    {
      OFFSET 43.7702 0 0
      CHANNELS 3 Zrotation Xrotation Yrotation
      JOINT LeftFoot
      {
        OFFSET 40.6238 0 0
        CHANNELS 3 Zrotation Xrotation Yrotation
        JOINT LeftToeBase
        {
          OFFSET 12.7242 0 0
          CHANNELS 3 Zrotation Xrotation Yrotation
          End Site
          {
            OFFSET 0 0 0
          }
        }
      }
    }
  }
  JOINT RightUpLeg
  {
    OFFSET -8.2249 1.95398 -2.59336
    CHANNELS 3 Zrotation Xrotation Yrotation
    JOINT RightLeg
    {
      OFFSET 43.5653 0 0
      CHANNELS 3 Zrotation Xrotation Yrotation
      JOINT RightFoot
      {
        OFFSET 40.6238 0 0
        CHANNELS 3 Zrotation Xrotation Yrotation
        JOINT RightToeBase
        {
          OFFSET 12.7242 0 0
          CHANNELS 3 Zrotation Xrotation Yrotation
          End Site
          {
            OFFSET 0 0 0
          }
        }
      }
    }
  }
  JOINT Spine
  {
    OFFSET 0.165834 0.87714 6.61349
    CHANNELS 3 Zrotation Xrotation Yrotation
    JOINT Spine1
    {
      OFFSET 7.38963 1.71661e-005 0
      CHANNELS 3 Zrotation Xrotation Yrotation
      JOINT Spine2
      {
        OFFSET 11.9445 1.14441e-005 0
        CHANNELS 3 Zrotation Xrotation Yrotation
        JOINT Spine3
        {
          OFFSET 14.7254 4.19617e-005 0
          CHANNELS 3 Zrotation Xrotation Yrotation
          JOINT Spine4
          {
            OFFSET 10.9679 0 0
            CHANNELS 3 Zrotation Xrotation Yrotation
            JOINT RightShoulder
            {
              OFFSET 2.46616 -1.6653 3.69651
              CHANNELS 3 Zrotation Xrotation Yrotation
              JOINT RightArm
              {
                OFFSET 13.0012 0 0
                CHANNELS 3 Zrotation Xrotation Yrotation
                JOINT RightForeArm
                {
                  OFFSET 28.7848 1.62311e-005 0
                  CHANNELS 3 Zrotation Xrotation Yrotation
                  JOINT RightHand
                  {
                    OFFSET 26.5688 1.62095e-005 0
                    CHANNELS 3 Zrotation Xrotation Yrotation
                    End Site
                    {
                      OFFSET 0 0 0
                    }
                  }
                }
              }
            }
            JOINT LeftShoulder
            {
              OFFSET 2.38034 -1.29275 -3.7523
              CHANNELS 3 Zrotation Xrotation Yrotation
              JOINT LeftArm
              {
                OFFSET 16.3182 6.07031e-005 0
                CHANNELS 3 Zrotation Xrotation Yrotation
                JOINT LeftForeArm
                {
                  OFFSET 27.0901 0 0
                  CHANNELS 3 Zrotation Xrotation Yrotation
                  JOINT LeftHand
                  {
                    OFFSET 24.5451 1.51738e-005 0
                    CHANNELS 3 Zrotation Xrotation Yrotation
                    End Site
                    {
                      OFFSET 0 0 0
                    }
                  }
                }
              }
            }
            JOINT Neck
            {
              OFFSET 5.0226 -0.0266342 0
              CHANNELS 3 Zrotation Xrotation Yrotation
              JOINT Head
              {
                OFFSET 6.69364 2.86102e-005 0
                CHANNELS 3 Zrotation Xrotation Yrotation
                End Site
                {
                  OFFSET 0 0 0
                }
              }
            }
          }
        }
      }
    }
  }
}
MOTION
Frames:	17
Frame Time:	0.0416667
-322.444 78.5257 334.927 99.113 19.0475 86.6869 -161.207 24.039 98.8164 -59.361 29.2943 -23.1767 61.5901 4.18828 46.4132 82.181 23.8664 2.9373 94.3958 42.5561 51.0181 -58.8969 -43.3545 30.7938 132.91 -0.176434 4.38395 -8.65908 -33.735 -176.08 3.86803 5.64769 -90.7629 15.6989 7.25846 -2.68325 4.04489 7.13335 -3.00141 -18.6527 7.72679 -0.365455 1.35993 7.72684 -0.365456 125.594 -20.1382 -28.4781 48.6405 -33.2214 2.99452 11.4394 -37.5589 0.00571806 -11.4028 -0.722951 2.41696 -57.9406 -43.897 129.032 50.8541 -70.015 59.6048 -145.731 -57.1717 -171.855 133.035 -27.44 -15.7692 -61.238 -3.09041 -4.7873 22.4846 -7.83739 -10.2026 
-322.562 78.5054 335.064 99.1564 19.0835 86.719 -160.973 24.1044 98.7996 -59.5414 29.6713 -22.947 61.1051 2.88723 46.4114 83.2042 24.1211 2.44096 94.8218 42.5089 50.5791 -58.6293 -43.4044 31.0582 131.519 -0.595282 4.2413 -7.57415 -32.8875 -175.996 3.86652 5.65222 -90.7716 15.6901 7.25139 -2.69874 4.03602 7.1256 -3.01656 -18.6612 7.7252 -0.382384 1.35147 7.72522 -0.382384 125.593 -20.094 -28.441 48.6053 -33.1553 2.99837 11.4704 -37.6894 0.0057281 -11.2507 -0.744875 2.7624 -57.9142 -43.9049 129.07 50.715 -69.9387 59.4105 -145.798 -57.2832 -171.862 133.163 -27.5042 -15.7608 -61.1858 -3.09282 -4.71144 22.4216 -7.832 -10.3437 
-322.925 78.4242 335.493 99.2917 19.1964 86.8189 -160.287 24.2899 98.7903 -60.0945 30.8197 -22.2507 59.6473 -1.10882 46.1971 86.3707 24.8522 0.885354 96.1577 42.3371 49.2094 -64.2903 -34.7332 27.7759 132.592 -3.14488 14.3498 -3.8996 -30.0162 -175.7 3.86184 5.66633 -90.7986 15.6627 7.2291 -2.74685 4.00838 7.10123 -3.06361 -18.6876 7.71861 -0.435098 1.32509 7.7186 -0.435096 125.592 -19.9585 -28.3265 48.4962 -32.9536 3.01029 11.561 -38.0766 0.0057583 -10.7926 -0.806059 3.81135 -57.8324 -43.9291 129.189 50.2833 -69.701 58.81 -146.015 -57.6132 -171.895 133.549 -27.7104 -15.7399 -61.0233 -3.10131 -4.47663 22.2272 -7.81244 -10.781 
-323.511 78.2318 336.193 99.5128 19.3831 86.9818 -159.293 24.5231 98.8952 -60.9698 32.6101 -21.1661 57.3973 -7.34605 45.2361 91.3864 25.8251 -1.65108 98.3586 41.9724 46.9747 104.309 11.6726 156.098 62.893 -14.3491 -145.205 3.44305 -24.2404 -175.099 3.85358 5.68918 -90.8425 15.6181 7.19189 -2.82494 3.96336 7.06059 -3.13993 -18.7305 7.70657 -0.520984 1.28218 7.70658 -0.520988 125.59 -19.7438 -28.1427 48.3205 -32.636 3.03021 11.69 -38.6547 0.00580448 -10.0924 -0.885129 5.43915 -57.7005 -43.967 129.38 49.5946 -69.3138 57.8533 -146.385 -58.1174 -171.968 134.154 -28.055 -15.7132 -60.7597 -3.11257 -4.09942 21.9162 -7.77673 -11.486 
-324.309 77.8506 337.156 99.8169 19.6449 87.2053 -158.141 24.6843 99.2193 -62.126 34.9069 -19.7528 54.4289 -15.1454 42.9131 97.7741 26.7059 -5.03926 101.404 41.2849 43.9253 105.041 12.0645 154.773 69.9465 -8.04245 -143.772 18.49 -11.7241 -173.478 3.8414 5.72042 -90.9026 15.557 7.13897 -2.93149 3.90173 7.00305 -3.24398 -18.789 7.68818 -0.638819 1.2236 7.68818 -0.638826 125.589 -19.46 -27.8956 48.0834 -32.2202 3.0584 11.8328 -39.3595 0.0058626 -9.21737 -0.959339 7.51772 -57.5219 -44.0156 129.639 48.6874 -68.7845 56.5906 -146.914 -58.7611 -172.095 134.95 -28.5365 -15.6844 -60.4014 -3.12282 -3.59289 21.5015 -7.72154 -12.4377 
-325.317 77.1959 338.377 100.202 19.9848 87.488 -156.953 24.6123 99.8134 -63.5314 37.5506 -18.0573 50.7237 -23.4386 38.748 104.739 27.1303 -8.99548 105.243 40.067 40.1581 105.913 12.2919 152.977 78.2896 -0.859091 -142.275 87.3249 21.9225 163.109 3.82434 5.75963 -90.9782 15.4802 7.06917 -3.0652 3.82422 6.92745 -3.37441 -18.8625 7.66185 -0.787753 1.15016 7.66185 -0.787747 125.589 -19.1177 -27.5909 47.7902 -31.7259 3.09534 11.9619 -40.1322 0.00592872 -8.24042 -1.00903 9.90138 -57.3003 -44.0712 129.962 47.6084 -68.1202 55.0804 -147.609 -59.5097 -172.291 135.909 -29.1553 -15.6568 -59.9553 -3.1277 -2.97043 20.9974 -7.64279 -13.6145 
-326.545 76.2097 339.854 100.694 20.3424 87.8528 -155.759 24.1414 100.717 -65.1612 40.3737 -16.1426 46.3485 -30.9347 32.7022 111.322 26.8738 -13.0817 109.765 38.0331 35.9044 106.922 12.1954 150.698 87.4739 6.6405 -140.753 -113.387 -23.3458 102.356 3.80883 5.80855 -91.0736 15.3848 6.99307 -3.23596 3.72789 6.84394 -3.54156 -18.9541 7.64066 -0.973964 1.05856 7.64064 -0.973963 125.592 -18.7284 -27.2349 47.4474 -31.1745 3.142 12.0495 -40.9248 0.00599926 -7.23433 -1.0219 12.4326 -57.0395 -44.1299 130.343 46.4075 -67.3299 53.3843 -148.473 -60.3253 -172.57 137.003 -29.9158 -15.6346 -59.4288 -3.12277 -2.24668 20.4199 -7.5363 -14.9935 
-328.046 74.8475 341.565 100.859 21.8511 87.8919 -155.208 23.5593 100.789 -67.3346 43.0991 -13.5769 41.5068 -36.8409 25.2695 116.814 25.9953 -16.8587 114.506 34.2182 30.9493 108.598 11.468 146.279 96.9646 13.5292 -139.444 -47.5524 -32.1966 143.237 3.6678 5.83014 -91.1071 15.3345 6.69851 -3.25334 3.67604 6.54891 -3.5458 -18.9925 7.36511 -1.08047 1.02014 7.36513 -1.08047 125.6 -18.3033 -26.8333 47.0623 -30.5886 3.19937 12.0725 -41.7052 0.00607151 -6.2599 -0.995304 14.9617 -56.7434 -44.1872 130.778 45.1338 -66.4247 51.5626 -149.513 -61.1648 -172.943 138.2 -30.8297 -15.6251 -58.8296 -3.10372 -1.43677 19.7854 -7.39849 -16.5512 
-329.749 73.2505 343.542 101.411 22.1229 88.3483 -153.994 22.1014 102.011 -69.1525 45.7633 -11.5388 37.0559 -40.5684 17.6318 120.949 24.7394 -20.0598 119.786 29.3869 26.8887 110.181 10.1813 142.525 106.397 20.2323 -137.737 -24.6143 -25.9306 150.51 3.66763 5.88824 -91.2237 15.2217 6.64279 -3.46858 3.56237 6.48377 -3.75828 -19.1017 7.37671 -1.30293 0.910919 7.37668 -1.30294 125.612 -17.8527 -26.3922 46.6426 -29.9897 3.26873 12.0158 -42.4542 0.0061436 -5.3595 -0.934506 17.366 -56.4161 -44.239 131.263 43.8306 -65.417 49.6693 -150.731 -61.9798 -173.423 139.468 -31.9169 -15.6388 -58.1658 -3.06658 -0.555117 19.1101 -7.22685 -18.2644 
-331.697 71.4799 345.748 102.016 22.4478 88.848 -152.751 20.1734 103.282 -70.9495 48.2502 -9.35364 33.4408 -42.5794 10.6543 123.869 23.4075 -22.5961 125.251 22.2169 23.4998 118.612 14.5456 136.27 116.966 18.58 -135.098 -10.9894 -19.7304 150.927 3.66395 5.95162 -91.3508 15.0982 6.57533 -3.7023 3.4378 6.40612 -3.98869 -19.2209 7.38261 -1.54665 0.791778 7.3826 -1.54665 125.63 -17.3864 -25.9172 46.1961 -29.3982 3.35054 11.8734 -43.1607 0.00621417 -4.55771 -0.848949 19.5535 -56.0619 -44.2813 131.791 42.5338 -64.3205 47.7498 -152.13 -62.7128 -174.018 140.77 -33.2075 -15.6913 -57.4454 -3.00828 0.383629 18.4097 -7.02011 -20.1098 
-333.84 69.733 348.106 102.671 22.8329 89.3873 -151.442 17.6604 104.58 -72.3094 50.4957 -7.0577 30.7751 -43.4095 4.76879 125.875 22.2012 -24.5218 130.973 11.6802 21.3457 -14.9004 -35.0455 67.7443 27.0147 11.5028 9.89517 1.56381 -13.5835 148.875 3.65574 6.01954 -91.4873 14.9653 6.49467 -3.95208 3.30368 6.31458 -4.23456 -19.3484 7.38075 -1.80976 0.664224 7.38076 -1.80976 125.655 -16.9135 -25.4143 45.7318 -28.8333 3.44586 11.6469 -43.8174 0.00628211 -3.86353 -0.749448 21.4657 -55.6855 -44.3103 132.357 41.2699 -63.1514 45.8403 -153.708 -63.2928 -174.731 142.059 -34.7452 -15.8052 -56.6767 -2.92662 1.36475 17.6995 -6.77847 -22.0637 
-336 68.5016 350.351 103.369 23.2851 89.9624 -149.881 14.0044 105.886 -71.9987 52.4474 -4.69006 28.3781 -43.6808 -0.423681 127.263 21.2098 -25.9479 137.094 -3.47859 21.5058 119.358 -3.73354 121.391 132.584 39.858 -131.291 18.6402 -6.22825 144.238 3.64196 6.09119 -91.6321 14.8245 6.39938 -4.21557 3.16158 6.20786 -4.49348 -19.4827 7.36909 -2.09046 0.529909 7.3691 -2.09047 125.687 -16.4421 -24.8893 45.2577 -28.3116 3.5545 11.3455 -44.419 0.0063464 -3.27382 -0.645394 23.0786 -55.2917 -44.3226 132.956 40.0567 -61.9262 43.9672 -155.453 -63.634 -175.557 143.281 -36.5881 -16.0125 -55.8678 -2.81998 2.3744 16.9931 -6.50359 -24.1028 
-337.577 69.4971 351.541 105.253 23.9417 91.2384 -147.032 7.45722 108.884 -65.8812 54.3357 -1.68408 23.3384 -44.2281 -7.29965 128.262 20.4565 -26.9782 146.17 -21.1722 32.1868 105.847 -28.6469 112.722 111.906 69.5443 -93.542 57.2955 1.86727 128.458 3.61846 6.24703 -91.9354 14.5366 6.20984 -4.78818 2.87087 5.99331 -5.05688 -19.7571 7.36052 -2.69523 0.255544 7.36053 -2.69525 125.728 -15.9786 -24.3477 44.7824 -27.8457 3.67669 10.9821 -44.9608 0.00640605 -2.77872 -0.543527 24.3947 -54.8851 -44.3155 133.58 38.9033 -60.6603 42.1478 -157.343 -63.6377 -176.479 144.366 -38.8065 -16.3581 -55.0266 -2.68822 3.39967 16.3022 -6.19846 -26.2052 
-339.772 69.7025 353.299 111.666 24.986 95.3354 -142.675 1.18441 118.746 -64.5448 57.256 3.80073 20.4227 -43.5748 -12.1532 129.038 19.9464 -27.6871 163.679 -31.9352 76.9207 -68.7796 -69.3751 -34.684 33.9755 41.7624 24.7317 104.37 -2.05162 105.517 3.57822 6.66824 -92.9023 13.6722 5.68806 -6.54924 1.99582 5.39499 -6.79237 -20.5658 7.39092 -4.53792 -0.55318 7.3909 -4.53792 125.776 -15.5283 -23.7949 44.3134 -27.445 3.812 10.5719 -45.4387 0.00646008 -2.3653 -0.447905 25.434 -54.4708 -44.2869 134.224 37.8125 -59.3686 40.3922 -159.339 -63.1878 -177.461 145.22 -41.4855 -16.9087 -54.1605 -2.53187 4.42875 15.6364 -5.8671 -28.35 
-344.054 64.205 358.107 114.042 26.0071 96.9102 -143.455 3.64356 123.362 -75.8698 58.9322 6.86549 26.5338 -41.2377 -9.11855 129.639 19.5761 -28.2024 176.959 -33.0373 103.039 -63.0372 -25.0694 -41.4685 38.9046 20.8805 50.2189 107.72 -5.58509 101.808 3.53625 6.8494 -93.2885 13.3167 5.43084 -7.26585 1.63542 5.1067 -7.49656 -20.8933 7.36029 -5.30179 -0.880617 7.36029 -5.3018 125.832 -15.0956 -23.2365 43.8581 -27.1156 3.95948 10.1317 -45.8494 0.00650761 -2.01991 -0.360838 26.2284 -54.0537 -44.2352 134.882 36.782 -58.0648 38.7057 -161.385 -62.1463 -178.45 145.705 -44.7263 -17.7714 -53.2766 -2.35224 5.45064 15.0034 -5.51443 -30.5167 
-348.307 59.798 362.757 116.692 27.1288 98.6625 -143.735 4.23467 128.292 -83.7537 60.2941 9.84797 30.4849 -39.087 -7.40175 130.155 19.3489 -28.5538 -172.79 -33.1437 110.458 -61.2442 -15.561 -31.5782 45.2413 12.0877 54.2591 106.753 -7.65609 99.1855 3.4908 7.04252 -93.7224 12.9239 5.14824 -8.06355 1.23678 4.7896 -8.28069 -21.2509 7.32929 -6.15128 -1.23829 7.32928 -6.15128 125.894 -14.6833 -22.6778 43.4237 -26.8602 4.11857 9.67702 -46.1908 0.00654792 -1.73003 -0.283035 26.8148 -53.6385 -44.1598 135.546 35.806 -56.7606 37.0893 -163.413 -60.3578 -179.385 145.606 -48.6382 -19.127 -52.3809 -2.15147 6.45552 14.4081 -5.14584 -32.6865 
-352.578 56.0251 367.346 119.312 28.328 100.392 -143.81 4.04362 133.23 -89.4532 61.4835 12.3947 33.3089 -37.125 -6.25652 130.618 19.2333 -28.7841 -165.421 -33.2035 116.433 -62.3368 -12.5065 -25.6507 51.5443 7.89424 54.5844 106.359 -9.48496 96.7844 3.44452 7.23285 -94.1563 12.5336 4.86643 -8.86318 0.840126 4.47328 -9.06676 -21.6027 7.29915 -7.00262 -1.59002 7.29918 -7.00262 125.961 -14.2931 -22.1238 43.0162 -26.6782 4.28828 9.22154 -46.4627 0.00658054 -1.48528 -0.214333 27.2299 -53.2297 -44.0604 136.21 34.8764 -55.465 35.5415 -165.259 -57.647 179.916 144.555 -53.3193 -21.3072 -51.4792 -1.93221 7.43527 13.8537 -4.76679 -34.8425 
